# Blender v2.81 (sub 16) OBJ File: ''
# www.blender.org
o Cube
v 1.000000 1.000000 -1.000000
v 1.000000 -1.000000 -1.000000
v 1.000000 1.000000 1.000000
v 1.000000 -1.000000 1.000000
v -1.000000 1.000000 -1.000000
v -1.000000 -1.000000 -1.000000
v -1.000000 1.000000 1.000000
v -1.000000 -1.000000 1.000000
vt 0.006340 0.994974
vt 1.000286 0.001027
vt 1.000287 0.994974
vt 0.003341 0.005026
vt 0.997288 0.998973
vt 0.003341 0.998973
vt 0.003341 0.996974
vt 0.997287 0.003026
vt 0.997287 0.996973
vt 0.002341 0.002027
vt 0.996287 0.995973
vt 0.002341 0.995973
vt 0.995288 0.996973
vt 0.001341 0.003027
vt 0.995288 0.003026
vt 0.004340 0.005026
vt 0.998287 0.998973
vt 0.004341 0.998973
vt 0.006340 0.001027
vt 0.997287 0.005026
vt 0.003340 0.003027
vt 0.996288 0.002027
vt 0.001341 0.996973
vt 0.998287 0.005026
vn 0.0000 1.0000 0.0000
vn 0.0000 0.0000 1.0000
vn -1.0000 0.0000 0.0000
vn 0.0000 -1.0000 0.0000
vn 1.0000 0.0000 0.0000
vn 0.0000 0.0000 -1.0000
s off
f 5/1/1 3/2/1 1/3/1
f 3/4/2 8/5/2 4/6/2
f 7/7/3 6/8/3 8/9/3
f 2/10/4 8/11/4 6/12/4
f 1/13/5 4/14/5 2/15/5
f 5/16/6 2/17/6 6/18/6
f 5/1/1 7/19/1 3/2/1
f 3/4/2 7/20/2 8/5/2
f 7/7/3 5/21/3 6/8/3
f 2/10/4 4/22/4 8/11/4
f 1/13/5 3/23/5 4/14/5
f 5/16/6 1/24/6 2/17/6
